<?xml version="1.0" standalone="no"?>
<!DOCTYPE svg PUBLIC "-//W3C//DTD SVG 20010904//EN"
 "http://www.w3.org/TR/2001/REC-SVG-20010904/DTD/svg10.dtd">
<svg version="1.0" xmlns="http://www.w3.org/2000/svg"
 width="225.000000pt" height="225.000000pt" viewBox="0 0 225.000000 225.000000"
 preserveAspectRatio="xMidYMid meet">

<g transform="translate(0.000000,225.000000) scale(0.100000,-0.100000)"
fill="#000000" stroke="none">
<path d="M1182 2038 c-18 -60 -68 -130 -150 -215 -86 -88 -120 -155 -131 -254
-7 -63 -6 -82 12 -129 11 -30 23 -93 26 -140 5 -61 14 -99 31 -134 34 -67 99
-137 154 -165 25 -13 53 -32 61 -41 15 -16 13 -20 -17 -51 -18 -18 -65 -56
-104 -85 -128 -95 -183 -178 -200 -303 -11 -84 3 -93 35 -25 37 77 122 169
243 261 54 40 108 87 120 103 26 36 48 25 48 -24 0 -82 -77 -181 -221 -288
-126 -93 -170 -169 -176 -303 -3 -77 -3 -79 10 -44 36 96 123 194 268 305 170
129 206 225 136 366 -20 39 -23 57 -16 75 15 40 10 104 -11 147 -26 55 -147
178 -218 223 -31 20 -59 37 -61 39 -7 6 71 102 134 164 102 99 137 194 101
275 -12 27 -14 28 -20 10 -25 -75 -73 -148 -150 -226 -46 -48 -94 -106 -106
-130 l-22 -43 -18 24 c-15 20 -16 29 -6 74 19 80 62 148 159 252 49 53 97 115
108 137 21 48 24 118 6 160 l-12 28 -13 -43z m-167 -748 c4 -6 25 -20 48 -32
23 -11 77 -46 120 -76 68 -49 77 -59 77 -87 0 -33 -18 -95 -27 -95 -17 0 -207
137 -237 170 -30 33 -35 45 -30 68 13 55 34 76 49 52z"/>
</g>
</svg>
